<svg xmlns="http://www.w3.org/2000/svg" width="64" height="64"><path d="M57.713 44.071H43.571a1 1 0 0 0-.707 1.707l3.5 3.5A14.84 14.84 0 0 1 36.5 53a15.017 15.017 0 0 1-15-15 15.173 15.173 0 0 1 .273-2.813A1 1 0 0 0 20.791 34h-8.1a1 1 0 0 0-.992.876A24.962 24.962 0 0 0 36.5 63a24.8 24.8 0 0 0 16.945-6.641l3.561 3.561a1 1 0 0 0 1.707-.707V45.071a1 1 0 0 0-1-1zM36.5 61a23.026 23.026 0 0 1-23-23 1 1 0 0 1 2 0 21.023 21.023 0 0 0 21 21 1 1 0 0 1 0 2zM36.5 13a24.8 24.8 0 0 0-16.945 6.641l-3.561-3.561a1 1 0 0 0-1.707.707v14.142a1 1 0 0 0 1 1h14.142a1 1 0 0 0 .707-1.707l-3.5-3.5A14.838 14.838 0 0 1 36.5 23a14.967 14.967 0 0 1 14.727 17.813A1 1 0 0 0 52.209 42h8.1a1 1 0 0 0 .992-.876A25.365 25.365 0 0 0 61.5 38a25.028 25.028 0 0 0-25-25zm22 26a1 1 0 0 1-1-1 21.023 21.023 0 0 0-21-21 1 1 0 0 1 0-2 23.026 23.026 0 0 1 23 23 1 1 0 0 1-1 1z" style="fill:#c4a2fc"/><path d="M36.5 31a7 7 0 1 0 7 7 7.008 7.008 0 0 0-7-7zm0 4a3 3 0 0 0-3 3 1 1 0 0 1-2 0 5.006 5.006 0 0 1 5-5 1 1 0 0 1 0 2z" style="fill:#c4a2fc"/><path d="M38.5 18h-12V7a1 1 0 0 0-1.861-.509l-13 22A1 1 0 0 0 12.5 30h12v11a1 1 0 0 0 1.861.509l13-22A1 1 0 0 0 38.5 18zm-12 19.342V29a1 1 0 0 0-1-1H14.252L24.5 10.658V19a1 1 0 0 0 1 1h11.247z" style="fill:#151a6a"/><path d="M25.5 1a23 23 0 1 0 23 23 23.026 23.026 0 0 0-23-23zm0 44a21 21 0 1 1 21-21 21.023 21.023 0 0 1-21 21z" style="fill:#151a6a"/></svg>